<svg xmlns="http://www.w3.org/2000/svg" xmlns:xlink="http://www.w3.org/1999/xlink" width="500" zoomAndPan="magnify" viewBox="0 0 375 374.999991" height="500" preserveAspectRatio="xMidYMid meet" version="1.0"><defs><g/><clipPath id="9beb498205"><path d="M 178.507812 186.003906 L 237.898438 186.003906 L 237.898438 245.394531 L 178.507812 245.394531 Z M 178.507812 186.003906 " clip-rule="nonzero"/></clipPath><clipPath id="d580a404d2"><path d="M 208.203125 186.003906 C 191.800781 186.003906 178.507812 199.300781 178.507812 215.699219 C 178.507812 232.101562 191.800781 245.394531 208.203125 245.394531 C 224.601562 245.394531 237.898438 232.101562 237.898438 215.699219 C 237.898438 199.300781 224.601562 186.003906 208.203125 186.003906 " clip-rule="nonzero"/></clipPath></defs><g fill="#fba92c" fill-opacity="1"><g transform="translate(22.360365, 334.767879)"><g><path d="M 40.421875 -76.25 L 52.296875 -76.25 L 91.609375 0 L 79.75 0 L 70.8125 -17.328125 L 21.453125 -17.328125 L 12.53125 0 L 1.09375 0 Z M 26.25 -26.6875 L 66.015625 -26.6875 L 46.1875 -65.140625 Z M 26.25 -26.6875 "/></g></g></g><g fill="#fba92c" fill-opacity="1"><g transform="translate(115.058009, 334.767879)"><g><path d="M 5.453125 -76.25 L 42.8125 -76.25 C 52.101562 -76.25 59.144531 -74.394531 63.9375 -70.6875 C 68.738281 -66.988281 71.140625 -61.507812 71.140625 -54.25 C 71.140625 -49.164062 69.882812 -44.878906 67.375 -41.390625 C 64.875 -37.910156 61.476562 -35.332031 57.1875 -33.65625 C 62.195312 -31.988281 65.71875 -29.226562 67.75 -25.375 C 69.789062 -21.53125 70.773438 -16.160156 70.703125 -9.265625 C 70.703125 -8.460938 70.703125 -7.625 70.703125 -6.75 C 70.703125 -5.882812 70.71875 -5.015625 70.75 -4.140625 C 70.789062 -3.265625 70.898438 -2.460938 71.078125 -1.734375 C 71.265625 -1.015625 71.570312 -0.4375 72 0 L 60.671875 0 C 59.878906 -0.726562 59.460938 -1.976562 59.421875 -3.75 C 59.390625 -5.53125 59.375 -7.148438 59.375 -8.609375 C 59.375 -13.472656 58.972656 -17.359375 58.171875 -20.265625 C 57.367188 -23.171875 55.988281 -25.398438 54.03125 -26.953125 C 52.070312 -28.515625 49.382812 -29.550781 45.96875 -30.0625 C 42.5625 -30.570312 38.242188 -30.828125 33.015625 -30.828125 L 16.78125 -30.828125 L 16.78125 0 L 5.453125 0 Z M 16.78125 -67.546875 L 16.78125 -39.546875 L 38.78125 -39.546875 C 42.125 -39.546875 45.101562 -39.765625 47.71875 -40.203125 C 50.332031 -40.640625 52.5625 -41.398438 54.40625 -42.484375 C 56.257812 -43.578125 57.675781 -45.046875 58.65625 -46.890625 C 59.644531 -48.742188 60.140625 -51.050781 60.140625 -53.8125 C 60.140625 -56.71875 59.59375 -59.078125 58.5 -60.890625 C 57.40625 -62.710938 55.878906 -64.113281 53.921875 -65.09375 C 51.960938 -66.070312 49.675781 -66.722656 47.0625 -67.046875 C 44.445312 -67.378906 41.613281 -67.546875 38.5625 -67.546875 Z M 16.78125 -67.546875 "/></g></g></g><g fill="#fba92c" fill-opacity="1"><g transform="translate(188.693281, 334.767879)"><g><path d="M 40.421875 -76.25 L 52.296875 -76.25 L 91.609375 0 L 79.75 0 L 70.8125 -17.328125 L 21.453125 -17.328125 L 12.53125 0 L 1.09375 0 Z M 26.25 -26.6875 L 66.015625 -26.6875 L 46.1875 -65.140625 Z M 26.25 -26.6875 "/></g></g></g><g fill="#fba92c" fill-opacity="1"><g transform="translate(281.390925, 334.767879)"><g><path d="M 17.4375 -22.875 C 17.4375 -19.894531 18.050781 -17.367188 19.28125 -15.296875 C 20.519531 -13.234375 22.171875 -11.546875 24.234375 -10.234375 C 26.304688 -8.929688 28.6875 -7.988281 31.375 -7.40625 C 34.0625 -6.820312 36.929688 -6.53125 39.984375 -6.53125 C 42.453125 -6.53125 44.957031 -6.765625 47.5 -7.234375 C 50.039062 -7.710938 52.328125 -8.457031 54.359375 -9.46875 C 56.390625 -10.488281 58.039062 -11.851562 59.3125 -13.5625 C 60.582031 -15.269531 61.21875 -17.394531 61.21875 -19.9375 C 61.21875 -22.257812 60.453125 -24.128906 58.921875 -25.546875 C 57.398438 -26.960938 55.421875 -28.125 52.984375 -29.03125 C 50.554688 -29.9375 47.765625 -30.679688 44.609375 -31.265625 C 41.453125 -31.847656 38.21875 -32.460938 34.90625 -33.109375 C 31.601562 -33.765625 28.375 -34.546875 25.21875 -35.453125 C 22.0625 -36.367188 19.265625 -37.625 16.828125 -39.21875 C 14.398438 -40.8125 12.421875 -42.84375 10.890625 -45.3125 C 9.367188 -47.78125 8.609375 -50.90625 8.609375 -54.6875 C 8.609375 -58.675781 9.476562 -62.125 11.21875 -65.03125 C 12.957031 -67.9375 15.28125 -70.332031 18.1875 -72.21875 C 21.09375 -74.113281 24.378906 -75.53125 28.046875 -76.46875 C 31.710938 -77.414062 35.472656 -77.890625 39.328125 -77.890625 C 43.898438 -77.890625 48.109375 -77.363281 51.953125 -76.3125 C 55.804688 -75.257812 59.128906 -73.660156 61.921875 -71.515625 C 64.722656 -69.367188 66.921875 -66.679688 68.515625 -63.453125 C 70.117188 -60.222656 70.992188 -56.394531 71.140625 -51.96875 L 60.34375 -51.96875 C 60.207031 -57.625 58.195312 -61.90625 54.3125 -64.8125 C 50.425781 -67.71875 45.429688 -69.171875 39.328125 -69.171875 C 36.929688 -69.171875 34.535156 -68.898438 32.140625 -68.359375 C 29.742188 -67.816406 27.597656 -66.984375 25.703125 -65.859375 C 23.816406 -64.734375 22.289062 -63.316406 21.125 -61.609375 C 19.96875 -59.898438 19.390625 -57.921875 19.390625 -55.671875 C 19.390625 -52.910156 20.148438 -50.691406 21.671875 -49.015625 C 23.203125 -47.347656 25.21875 -45.96875 27.71875 -44.875 C 30.226562 -43.789062 33.078125 -42.921875 36.265625 -42.265625 C 39.460938 -41.609375 42.75 -40.972656 46.125 -40.359375 C 49.507812 -39.742188 52.796875 -39 55.984375 -38.125 C 59.179688 -37.257812 62.03125 -36.097656 64.53125 -34.640625 C 67.039062 -33.191406 69.054688 -31.335938 70.578125 -29.078125 C 72.109375 -26.828125 72.875 -23.960938 72.875 -20.484375 C 72.875 -16.046875 71.894531 -12.375 69.9375 -9.46875 C 67.976562 -6.570312 65.414062 -4.25 62.25 -2.5 C 59.09375 -0.757812 55.570312 0.453125 51.6875 1.140625 C 47.800781 1.828125 43.898438 2.171875 39.984375 2.171875 C 35.398438 2.171875 31.09375 1.734375 27.0625 0.859375 C 23.039062 -0.00390625 19.519531 -1.429688 16.5 -3.421875 C 13.488281 -5.421875 11.09375 -8.019531 9.3125 -11.21875 C 7.53125 -14.414062 6.640625 -18.300781 6.640625 -22.875 Z M 17.4375 -22.875 "/></g></g></g><g fill="#004e7c" fill-opacity="1"><g transform="translate(9.302068, 220.241665)"><g><path d="M 41.0625 -186.609375 L 41.0625 -186.34375 L 107.4375 -186.34375 C 116.144531 -186.34375 124.40625 -185.1875 132.21875 -182.875 C 140.039062 -180.570312 146.796875 -177.285156 152.484375 -173.015625 C 158.171875 -168.753906 162.703125 -163.46875 166.078125 -157.15625 C 169.460938 -150.84375 171.15625 -143.691406 171.15625 -135.703125 C 171.15625 -124.503906 168.578125 -115.257812 163.421875 -107.96875 C 158.265625 -100.6875 151.242188 -95.085938 142.359375 -91.171875 C 153.734375 -88.148438 162.617188 -83.039062 169.015625 -75.84375 C 175.421875 -68.644531 178.625 -59.445312 178.625 -48.25 C 178.625 -39.71875 176.84375 -32.429688 173.28125 -26.390625 C 169.726562 -20.347656 165.0625 -15.414062 159.28125 -11.59375 C 153.507812 -7.769531 146.890625 -4.925781 139.421875 -3.0625 C 131.960938 -1.195312 124.320312 -0.265625 116.5 -0.265625 L 41.0625 -0.265625 L 41.0625 0 L 13.328125 0 L 13.328125 -186.609375 Z M 97.3125 -82.109375 C 87.882812 -82.109375 78.503906 -82.109375 69.171875 -82.109375 C 59.847656 -82.109375 50.476562 -81.929688 41.0625 -81.578125 L 41.0625 -22.65625 L 97.578125 -22.65625 C 104.328125 -22.65625 110.988281 -22.921875 117.5625 -23.453125 C 124.144531 -23.992188 129.96875 -25.238281 135.03125 -27.1875 C 140.09375 -29.144531 144.175781 -32.078125 147.28125 -35.984375 C 150.394531 -39.898438 151.953125 -45.320312 151.953125 -52.25 C 151.953125 -59.007812 150.394531 -64.34375 147.28125 -68.25 C 144.175781 -72.15625 140.046875 -75.128906 134.890625 -77.171875 C 129.742188 -79.222656 123.925781 -80.554688 117.4375 -81.171875 C 110.945312 -81.796875 104.238281 -82.109375 97.3125 -82.109375 Z M 41.0625 -163.953125 L 41.0625 -98.109375 L 98.375 -98.109375 C 104.59375 -98.109375 110.457031 -98.6875 115.96875 -99.84375 C 121.476562 -101 126.320312 -102.953125 130.5 -105.703125 C 134.675781 -108.460938 137.960938 -112.019531 140.359375 -116.375 C 142.753906 -120.726562 143.953125 -126.101562 143.953125 -132.5 C 143.953125 -138.894531 142.707031 -144.09375 140.21875 -148.09375 C 137.738281 -152.09375 134.410156 -155.289062 130.234375 -157.6875 C 126.054688 -160.09375 121.300781 -161.738281 115.96875 -162.625 C 110.632812 -163.507812 105.035156 -163.953125 99.171875 -163.953125 Z M 41.0625 -163.953125 "/></g></g></g><g clip-path="url(#9beb498205)"><g clip-path="url(#d580a404d2)"><path fill="#38a793" d="M 178.507812 186.003906 L 237.898438 186.003906 L 237.898438 245.394531 L 178.507812 245.394531 Z M 178.507812 186.003906 " fill-opacity="1" fill-rule="nonzero"/></g></g><g fill="#004e7c" fill-opacity="1"><g transform="translate(184.409568, 220.241665)"><g><path d="M 9.328125 0 L 9.328125 -186.609375 L 102.375 -186.609375 C 112.5 -186.609375 121.78125 -185.410156 130.21875 -183.015625 C 138.664062 -180.617188 145.957031 -177.0625 152.09375 -172.34375 C 158.226562 -167.632812 162.984375 -161.859375 166.359375 -155.015625 C 169.734375 -148.179688 171.421875 -140.320312 171.421875 -131.4375 C 171.421875 -121.832031 169.6875 -113.472656 166.21875 -106.359375 C 162.75 -99.253906 157.90625 -93.4375 151.6875 -88.90625 C 145.46875 -84.375 138.132812 -81 129.6875 -78.78125 C 121.25 -76.5625 112.144531 -75.453125 102.375 -75.453125 L 37.0625 -75.453125 L 37.0625 0 Z M 37.0625 -165.28125 L 37.0625 -96.78125 L 92.234375 -96.78125 C 98.640625 -96.78125 104.953125 -97.265625 111.171875 -98.234375 C 117.390625 -99.210938 122.941406 -100.945312 127.828125 -103.4375 C 132.710938 -105.925781 136.664062 -109.4375 139.6875 -113.96875 C 142.71875 -118.5 144.234375 -124.410156 144.234375 -131.703125 C 144.234375 -138.984375 142.675781 -144.800781 139.5625 -149.15625 C 136.445312 -153.507812 132.398438 -156.882812 127.421875 -159.28125 C 122.453125 -161.6875 116.859375 -163.285156 110.640625 -164.078125 C 104.421875 -164.878906 98.109375 -165.28125 91.703125 -165.28125 Z M 37.0625 -165.28125 "/></g></g></g></svg>