<svg xmlns="http://www.w3.org/2000/svg" xmlns:xlink="http://www.w3.org/1999/xlink" width="500" zoomAndPan="magnify" viewBox="0 0 375 374.999991" height="500" preserveAspectRatio="xMidYMid meet" version="1.0"><defs><g/><clipPath id="7429e409a0"><path d="M 23.460938 194.132812 L 122.460938 194.132812 L 122.460938 279.632812 L 23.460938 279.632812 Z M 23.460938 194.132812 " clip-rule="nonzero"/></clipPath><clipPath id="bc64a0e4fe"><path d="M 100.148438 238.796875 L 199.148438 238.796875 L 199.148438 324.296875 L 100.148438 324.296875 Z M 100.148438 238.796875 " clip-rule="nonzero"/></clipPath><clipPath id="cc8405c254"><path d="M 100.148438 149.464844 L 199.148438 149.464844 L 199.148438 234.964844 L 100.148438 234.964844 Z M 100.148438 149.464844 " clip-rule="nonzero"/></clipPath><clipPath id="c08c0c5e46"><path d="M 252.535156 149.464844 L 351.535156 149.464844 L 351.535156 234.964844 L 252.535156 234.964844 Z M 252.535156 149.464844 " clip-rule="nonzero"/></clipPath><clipPath id="8481e95d82"><path d="M 176.703125 194.132812 L 275.703125 194.132812 L 275.703125 279.632812 L 176.703125 279.632812 Z M 176.703125 194.132812 " clip-rule="nonzero"/></clipPath><clipPath id="23ff6428d0"><path d="M 252.535156 238.796875 L 351.535156 238.796875 L 351.535156 324.296875 L 252.535156 324.296875 Z M 252.535156 238.796875 " clip-rule="nonzero"/></clipPath><clipPath id="673568696d"><path d="M 232 235 L 289 235 L 289 309 L 232 309 Z M 232 235 " clip-rule="nonzero"/></clipPath><clipPath id="e4574955ee"><path d="M 232.4375 235.148438 L 290.109375 238.128906 L 286.433594 309.285156 L 228.761719 306.304688 Z M 232.4375 235.148438 " clip-rule="nonzero"/></clipPath><clipPath id="fcb992c824"><path d="M 232.4375 235.148438 L 290.109375 238.128906 L 286.433594 309.285156 L 228.761719 306.304688 Z M 232.4375 235.148438 " clip-rule="nonzero"/></clipPath><clipPath id="38ef51403a"><path d="M 232.4375 235.148438 L 290.109375 238.128906 L 286.433594 309.285156 L 228.761719 306.304688 Z M 232.4375 235.148438 " clip-rule="nonzero"/></clipPath><clipPath id="eef0affe17"><path d="M 232.4375 235.152344 L 290.238281 238.136719 L 286.554688 309.398438 L 228.753906 306.410156 Z M 232.4375 235.152344 " clip-rule="nonzero"/></clipPath><clipPath id="c5cf839a1f"><path d="M 232.4375 235.152344 L 290.113281 238.128906 L 286.4375 309.292969 L 228.761719 306.3125 Z M 232.4375 235.152344 " clip-rule="nonzero"/></clipPath></defs><rect x="-37.5" width="450" fill="#ffffff" y="-37.499999" height="449.999989" fill-opacity="1"/><rect x="-37.5" width="450" fill="#ffffff" y="-37.499999" height="449.999989" fill-opacity="1"/><rect x="-37.5" width="450" fill="#ffffff" y="-37.499999" height="449.999989" fill-opacity="1"/><rect x="-37.5" width="450" fill="#56042c" y="-37.499999" height="449.999989" fill-opacity="1"/><g clip-path="url(#7429e409a0)"><path fill="#7ed957" d="M 48.226562 279.632812 L 23.492188 236.882812 L 48.226562 194.132812 L 97.695312 194.132812 L 122.425781 236.882812 L 97.695312 279.632812 Z M 48.226562 279.632812 " fill-opacity="1" fill-rule="nonzero"/></g><g clip-path="url(#bc64a0e4fe)"><path fill="#008037" d="M 124.917969 324.296875 L 100.183594 281.546875 L 124.917969 238.796875 L 174.382812 238.796875 L 199.117188 281.546875 L 174.382812 324.296875 Z M 124.917969 324.296875 " fill-opacity="1" fill-rule="nonzero"/></g><g clip-path="url(#cc8405c254)"><path fill="#5271ff" d="M 124.917969 234.964844 L 100.183594 192.214844 L 124.917969 149.464844 L 174.382812 149.464844 L 199.117188 192.214844 L 174.382812 234.964844 Z M 124.917969 234.964844 " fill-opacity="1" fill-rule="nonzero"/></g><g clip-path="url(#c08c0c5e46)"><path fill="#ff16da" d="M 277.300781 234.964844 L 252.566406 192.214844 L 277.300781 149.464844 L 326.765625 149.464844 L 351.5 192.214844 L 326.765625 234.964844 Z M 277.300781 234.964844 " fill-opacity="1" fill-rule="nonzero"/></g><g clip-path="url(#8481e95d82)"><path fill="#8c52ff" d="M 201.472656 279.632812 L 176.738281 236.882812 L 201.472656 194.132812 L 250.9375 194.132812 L 275.671875 236.882812 L 250.9375 279.632812 Z M 201.472656 279.632812 " fill-opacity="1" fill-rule="nonzero"/></g><g clip-path="url(#23ff6428d0)"><path fill="#ff16da" d="M 277.300781 324.296875 L 252.566406 281.546875 L 277.300781 238.796875 L 326.765625 238.796875 L 351.5 281.546875 L 326.765625 324.296875 Z M 277.300781 324.296875 " fill-opacity="1" fill-rule="nonzero"/></g><g clip-path="url(#673568696d)"><g clip-path="url(#e4574955ee)"><g clip-path="url(#fcb992c824)"><g clip-path="url(#38ef51403a)"><g clip-path="url(#eef0affe17)"><g clip-path="url(#c5cf839a1f)"><path fill="#1d1d1b" d="M 288.429688 270.777344 L 232.4375 235.152344 L 236.984375 300.40625 L 253.65625 283.449219 L 253.742188 283.398438 L 268.289062 308.351562 L 279.800781 301.730469 L 265.191406 276.660156 L 265.261719 276.621094 L 288.429688 270.777344 " fill-opacity="1" fill-rule="nonzero"/></g></g></g></g></g></g><g fill="#ffffff" fill-opacity="1"><g transform="translate(23.460466, 112.620895)"><g><path d="M 52.890625 -28.203125 C 52.890625 -19.097656 50.296875 -12.117188 45.109375 -7.265625 C 39.921875 -2.421875 32.429688 0 22.640625 0 L 6.96875 0 L 6.96875 -55.359375 L 24.34375 -55.359375 C 33.382812 -55.359375 40.398438 -52.972656 45.390625 -48.203125 C 50.390625 -43.429688 52.890625 -36.765625 52.890625 -28.203125 Z M 40.703125 -27.90625 C 40.703125 -39.789062 35.453125 -45.734375 24.953125 -45.734375 L 18.703125 -45.734375 L 18.703125 -9.6875 L 23.734375 -9.6875 C 35.046875 -9.6875 40.703125 -15.757812 40.703125 -27.90625 Z M 40.703125 -27.90625 "/></g></g></g><g fill="#ffffff" fill-opacity="1"><g transform="translate(80.855704, 112.620895)"><g><path d="M 40.859375 0 L 36.84375 -13.171875 L 16.65625 -13.171875 L 12.640625 0 L 0 0 L 19.53125 -55.578125 L 33.890625 -55.578125 L 53.5 0 Z M 34.046875 -23.015625 C 30.328125 -34.960938 28.234375 -41.71875 27.765625 -43.28125 C 27.304688 -44.84375 26.972656 -46.078125 26.765625 -46.984375 C 25.929688 -43.753906 23.546875 -35.765625 19.609375 -23.015625 Z M 34.046875 -23.015625 "/></g></g></g><g fill="#ffffff" fill-opacity="1"><g transform="translate(134.351408, 112.620895)"><g><path d="M 28.328125 0 L 16.578125 0 L 16.578125 -45.59375 L 1.546875 -45.59375 L 1.546875 -55.359375 L 43.359375 -55.359375 L 43.359375 -45.59375 L 28.328125 -45.59375 Z M 28.328125 0 "/></g></g></g><g fill="#ffffff" fill-opacity="1"><g transform="translate(179.25296, 112.620895)"><g><path d="M 40.859375 0 L 36.84375 -13.171875 L 16.65625 -13.171875 L 12.640625 0 L 0 0 L 19.53125 -55.578125 L 33.890625 -55.578125 L 53.5 0 Z M 34.046875 -23.015625 C 30.328125 -34.960938 28.234375 -41.71875 27.765625 -43.28125 C 27.304688 -44.84375 26.972656 -46.078125 26.765625 -46.984375 C 25.929688 -43.753906 23.546875 -35.765625 19.609375 -23.015625 Z M 34.046875 -23.015625 "/></g></g></g><g fill="#ffffff" fill-opacity="1"><g transform="translate(232.748664, 112.620895)"><g><path d="M 38.546875 -55.359375 L 50.390625 -55.359375 L 31.578125 0 L 18.78125 0 L 0 -55.359375 L 11.859375 -55.359375 L 22.265625 -22.421875 C 22.847656 -20.472656 23.445312 -18.203125 24.0625 -15.609375 C 24.675781 -13.023438 25.0625 -11.226562 25.21875 -10.21875 C 25.5 -12.539062 26.445312 -16.609375 28.0625 -22.421875 Z M 38.546875 -55.359375 "/></g></g></g><g fill="#ffffff" fill-opacity="1"><g transform="translate(283.139877, 112.620895)"><g><path d="M 6.96875 0 L 6.96875 -55.359375 L 18.703125 -55.359375 L 18.703125 0 Z M 6.96875 0 "/></g></g></g><g fill="#ffffff" fill-opacity="1"><g transform="translate(308.808723, 112.620895)"><g><path d="M 39.640625 -15.375 C 39.640625 -10.375 37.84375 -6.4375 34.25 -3.5625 C 30.65625 -0.6875 25.648438 0.75 19.234375 0.75 C 13.328125 0.75 8.101562 -0.359375 3.5625 -2.578125 L 3.5625 -13.484375 C 7.289062 -11.816406 10.445312 -10.640625 13.03125 -9.953125 C 15.625 -9.273438 17.992188 -8.9375 20.140625 -8.9375 C 22.710938 -8.9375 24.6875 -9.425781 26.0625 -10.40625 C 27.445312 -11.394531 28.140625 -12.863281 28.140625 -14.8125 C 28.140625 -15.894531 27.832031 -16.859375 27.21875 -17.703125 C 26.613281 -18.546875 25.722656 -19.359375 24.546875 -20.140625 C 23.378906 -20.921875 20.988281 -22.171875 17.375 -23.890625 C 14 -25.484375 11.460938 -27.007812 9.765625 -28.46875 C 8.078125 -29.9375 6.726562 -31.640625 5.71875 -33.578125 C 4.707031 -35.523438 4.203125 -37.800781 4.203125 -40.40625 C 4.203125 -45.300781 5.859375 -49.148438 9.171875 -51.953125 C 12.492188 -54.753906 17.085938 -56.15625 22.953125 -56.15625 C 25.828125 -56.15625 28.566406 -55.8125 31.171875 -55.125 C 33.785156 -54.445312 36.519531 -53.488281 39.375 -52.25 L 35.59375 -43.125 C 32.632812 -44.34375 30.191406 -45.191406 28.265625 -45.671875 C 26.335938 -46.148438 24.4375 -46.390625 22.5625 -46.390625 C 20.34375 -46.390625 18.640625 -45.867188 17.453125 -44.828125 C 16.265625 -43.796875 15.671875 -42.445312 15.671875 -40.78125 C 15.671875 -39.75 15.910156 -38.847656 16.390625 -38.078125 C 16.867188 -37.304688 17.628906 -36.5625 18.671875 -35.84375 C 19.722656 -35.125 22.207031 -33.828125 26.125 -31.953125 C 31.300781 -29.484375 34.847656 -27.003906 36.765625 -24.515625 C 38.679688 -22.023438 39.640625 -18.976562 39.640625 -15.375 Z M 39.640625 -15.375 "/></g></g></g></svg>